<mxfile host="app.diagrams.net" modified="2021-03-29T00:47:39.560Z" agent="5.0 (Macintosh; Intel Mac OS X 10_15_7) AppleWebKit/537.36 (KHTML, like Gecko) Chrome/89.0.4389.90 Safari/537.36" etag="26Mr_CDKyj_8olI9bUCb" version="14.5.3" type="github">
  <diagram id="C5RBs43oDa-KdzZeNtuy" name="Page-1">
    <mxGraphModel dx="831" dy="1075" grid="1" gridSize="10" guides="1" tooltips="1" connect="1" arrows="1" fold="1" page="1" pageScale="1" pageWidth="827" pageHeight="1169" math="0" shadow="0">
      <root>
        <mxCell id="WIyWlLk6GJQsqaUBKTNV-0" />
        <mxCell id="WIyWlLk6GJQsqaUBKTNV-1" parent="WIyWlLk6GJQsqaUBKTNV-0" />
        <mxCell id="cpOc_2fqmFp_ZZnLeiUv-3" value="" style="shape=folder;fontStyle=1;spacingTop=10;tabWidth=40;tabHeight=14;tabPosition=left;html=1;" vertex="1" parent="WIyWlLk6GJQsqaUBKTNV-1">
          <mxGeometry x="40" y="170" width="410" height="400" as="geometry" />
        </mxCell>
        <mxCell id="cpOc_2fqmFp_ZZnLeiUv-4" value="" style="shape=folder;fontStyle=1;spacingTop=10;tabWidth=40;tabHeight=14;tabPosition=left;html=1;" vertex="1" parent="WIyWlLk6GJQsqaUBKTNV-1">
          <mxGeometry x="40" y="600" width="410" height="380" as="geometry" />
        </mxCell>
        <mxCell id="cpOc_2fqmFp_ZZnLeiUv-5" value="" style="shape=folder;fontStyle=1;spacingTop=10;tabWidth=70;tabHeight=10;tabPosition=left;html=1;" vertex="1" parent="WIyWlLk6GJQsqaUBKTNV-1">
          <mxGeometry x="470" y="170" width="410" height="400" as="geometry" />
        </mxCell>
        <mxCell id="cpOc_2fqmFp_ZZnLeiUv-11" value="&lt;span style=&quot;color: rgb(0 , 0 , 0) ; font-family: &amp;#34;helvetica&amp;#34; ; font-size: 10px ; font-style: normal ; font-weight: 700 ; letter-spacing: normal ; text-indent: 0px ; text-transform: none ; word-spacing: 0px ; background-color: rgb(248 , 249 , 250) ; display: inline ; float: none&quot;&gt;View&lt;/span&gt;" style="text;whiteSpace=wrap;html=1;align=center;verticalAlign=middle;fontSize=10;" vertex="1" parent="WIyWlLk6GJQsqaUBKTNV-1">
          <mxGeometry x="40" y="170" width="30" height="10" as="geometry" />
        </mxCell>
        <mxCell id="cpOc_2fqmFp_ZZnLeiUv-15" value="&lt;span style=&quot;color: rgb(0, 0, 0); font-family: helvetica; font-size: 9px; font-style: normal; font-weight: 700; letter-spacing: normal; text-indent: 0px; text-transform: none; word-spacing: 0px; background-color: rgb(248, 249, 250); display: inline; float: none;&quot;&gt;Controller&lt;/span&gt;" style="text;whiteSpace=wrap;html=1;align=center;verticalAlign=middle;fontSize=9;" vertex="1" parent="WIyWlLk6GJQsqaUBKTNV-1">
          <mxGeometry x="490" y="170" width="30" height="10" as="geometry" />
        </mxCell>
        <mxCell id="cpOc_2fqmFp_ZZnLeiUv-16" value="&lt;meta charset=&quot;utf-8&quot; style=&quot;font-size: 11px;&quot;&gt;&lt;span style=&quot;color: rgb(0, 0, 0); font-family: helvetica; font-size: 11px; font-style: normal; font-weight: 700; letter-spacing: normal; text-align: center; text-indent: 0px; text-transform: none; word-spacing: 0px; background-color: rgb(248, 249, 250); display: inline; float: none;&quot;&gt;Model&lt;/span&gt;" style="text;whiteSpace=wrap;html=1;fontSize=11;verticalAlign=middle;" vertex="1" parent="WIyWlLk6GJQsqaUBKTNV-1">
          <mxGeometry x="40" y="590" width="60" height="30" as="geometry" />
        </mxCell>
        <mxCell id="cpOc_2fqmFp_ZZnLeiUv-17" value="Object" style="swimlane;fontStyle=1;align=center;verticalAlign=top;childLayout=stackLayout;horizontal=1;startSize=26;horizontalStack=0;resizeParent=1;resizeParentMax=0;resizeLast=0;collapsible=1;marginBottom=0;fontSize=11;" vertex="1" parent="WIyWlLk6GJQsqaUBKTNV-1">
          <mxGeometry x="50" y="640" width="280" height="124" as="geometry" />
        </mxCell>
        <mxCell id="cpOc_2fqmFp_ZZnLeiUv-18" value="+ int size&#xa;+ int pX&#xa;+ int pY&#xa;+ int opacity" style="text;strokeColor=none;fillColor=none;align=left;verticalAlign=top;spacingLeft=4;spacingRight=4;overflow=hidden;rotatable=0;points=[[0,0.5],[1,0.5]];portConstraint=eastwest;" vertex="1" parent="cpOc_2fqmFp_ZZnLeiUv-17">
          <mxGeometry y="26" width="280" height="64" as="geometry" />
        </mxCell>
        <mxCell id="cpOc_2fqmFp_ZZnLeiUv-19" value="" style="line;strokeWidth=1;fillColor=none;align=left;verticalAlign=middle;spacingTop=-1;spacingLeft=3;spacingRight=3;rotatable=0;labelPosition=right;points=[];portConstraint=eastwest;" vertex="1" parent="cpOc_2fqmFp_ZZnLeiUv-17">
          <mxGeometry y="90" width="280" height="8" as="geometry" />
        </mxCell>
        <mxCell id="cpOc_2fqmFp_ZZnLeiUv-20" value="+ paintObject(app,posX,posY,size, opacity): void" style="text;strokeColor=none;fillColor=none;align=left;verticalAlign=top;spacingLeft=4;spacingRight=4;overflow=hidden;rotatable=0;points=[[0,0.5],[1,0.5]];portConstraint=eastwest;" vertex="1" parent="cpOc_2fqmFp_ZZnLeiUv-17">
          <mxGeometry y="98" width="280" height="26" as="geometry" />
        </mxCell>
        <mxCell id="cpOc_2fqmFp_ZZnLeiUv-21" value="Screen" style="swimlane;fontStyle=1;align=center;verticalAlign=top;childLayout=stackLayout;horizontal=1;startSize=26;horizontalStack=0;resizeParent=1;resizeParentMax=0;resizeLast=0;collapsible=1;marginBottom=0;fontSize=11;" vertex="1" parent="WIyWlLk6GJQsqaUBKTNV-1">
          <mxGeometry x="50" y="780" width="160" height="86" as="geometry" />
        </mxCell>
        <mxCell id="cpOc_2fqmFp_ZZnLeiUv-22" value="- boolean screenType" style="text;strokeColor=none;fillColor=none;align=left;verticalAlign=top;spacingLeft=4;spacingRight=4;overflow=hidden;rotatable=0;points=[[0,0.5],[1,0.5]];portConstraint=eastwest;" vertex="1" parent="cpOc_2fqmFp_ZZnLeiUv-21">
          <mxGeometry y="26" width="160" height="26" as="geometry" />
        </mxCell>
        <mxCell id="cpOc_2fqmFp_ZZnLeiUv-23" value="" style="line;strokeWidth=1;fillColor=none;align=left;verticalAlign=middle;spacingTop=-1;spacingLeft=3;spacingRight=3;rotatable=0;labelPosition=right;points=[];portConstraint=eastwest;" vertex="1" parent="cpOc_2fqmFp_ZZnLeiUv-21">
          <mxGeometry y="52" width="160" height="8" as="geometry" />
        </mxCell>
        <mxCell id="cpOc_2fqmFp_ZZnLeiUv-24" value="+ method(type): type" style="text;strokeColor=none;fillColor=none;align=left;verticalAlign=top;spacingLeft=4;spacingRight=4;overflow=hidden;rotatable=0;points=[[0,0.5],[1,0.5]];portConstraint=eastwest;" vertex="1" parent="cpOc_2fqmFp_ZZnLeiUv-21">
          <mxGeometry y="60" width="160" height="26" as="geometry" />
        </mxCell>
      </root>
    </mxGraphModel>
  </diagram>
</mxfile>
